<svg xmlns="http://www.w3.org/2000/svg" viewBox="0 0 32 40" x="0px" y="0px"><path d="M27.45,8.36H10.91a2.55,2.55,0,0,0-2.55,2.55V27.45A2.55,2.55,0,0,0,10.91,30H27.45A2.55,2.55,0,0,0,30,27.45V10.91A2.55,2.55,0,0,0,27.45,8.36ZM24.27,20.18H20.18v4.09a1,1,0,1,1-2,0V20.18H14.09a1,1,0,1,1,0-2h4.09V14.09a1,1,0,1,1,2,0v4.09h4.09a1,1,0,1,1,0,2Z"/><path d="M10.91,7.36H23.64V4.55A2.55,2.55,0,0,0,21.09,2H4.55A2.55,2.55,0,0,0,2,4.55V21.09a2.55,2.55,0,0,0,2.55,2.55H7.36V10.91A3.55,3.55,0,0,1,10.91,7.36Z"/></svg>