<svg xmlns="http://www.w3.org/2000/svg" xmlns:xlink="http://www.w3.org/1999/xlink" version="1.1" x="0px" y="0px" viewBox="0 0 90 112.5"><path d="M59.332,47.266c-4.172,3.063-9.208,4.719-14.379,4.73c-5.178-0.012-10.214-1.668-14.391-4.73  c-10.142,1.146-17.959,9.256-17.959,19.162v7.525c0,5.26,2.568,7.209,7.088,7.172h50.516c4.521,0.037,7.089-1.912,7.089-7.172  v-7.525C77.296,56.521,69.478,48.406,59.332,47.266z"/><path d="M44.953,8.87c-4.975,0-9.74,1.974-13.257,5.49c-3.51,3.516-5.483,8.281-5.483,13.25c0,4.969,1.973,9.738,5.483,13.25  c3.517,3.516,8.282,5.488,13.257,5.488c4.967,0,9.733-1.972,13.249-5.488c3.516-3.512,5.489-8.281,5.489-13.25  c0-4.969-1.974-9.735-5.489-13.25C54.686,10.843,49.92,8.87,44.953,8.87z"/></svg>