<svg xmlns:xlink="http://www.w3.org/1999/xlink" version="1.1" x="0px" y="0px" viewBox="0 4 33 33"><path d="M6.115,24.673c0,0.086,0.07,0.158,0.158,0.158h19.456c0.086,0,0.157-0.071,0.157-0.158v-0.529  c0-0.087-0.069-0.158-0.157-0.158H6.272c-0.087,0-0.158,0.071-0.158,0.158L6.115,24.673L6.115,24.673z"/><path d="M5.058,25.412v0.741c0,0.088,0.071,0.158,0.159,0.158h21.569c0.087,0,0.158-0.07,0.158-0.158v-0.741  c0-0.086-0.07-0.158-0.158-0.158H5.216C5.128,25.253,5.058,25.326,5.058,25.412z"/><path d="M27.841,26.732H4.159C4.072,26.732,4,26.804,4,26.891v0.951C4,27.928,4.071,28,4.159,28h23.682  C27.928,28,28,27.929,28,27.842v-0.951C28,26.804,27.928,26.732,27.841,26.732z"/><rect x="8.227" y="13.228" width="2.113" height="8.75"/><rect x="12.706" y="13.228" width="2.113" height="8.75"/><rect x="17.182" y="13.228" width="2.113" height="8.75"/><rect x="21.661" y="13.242" width="2.112" height="8.751"/><path d="M10.657,12.489c0-0.175-0.142-0.317-0.318-0.317H8.227c-0.175,0-0.317,0.142-0.317,0.317c0,0.174,0.142,0.316,0.317,0.316  h2.113C10.516,12.806,10.657,12.663,10.657,12.489z"/><path d="M15.134,12.489c0-0.175-0.142-0.317-0.317-0.317h-2.113c-0.175,0-0.317,0.142-0.317,0.317c0,0.174,0.142,0.316,0.317,0.316  h2.113C14.993,12.806,15.134,12.663,15.134,12.489z"/><path d="M19.611,12.489c0-0.175-0.142-0.317-0.316-0.317h-2.112c-0.176,0-0.319,0.142-0.319,0.317c0,0.174,0.143,0.316,0.319,0.316  h2.112C19.47,12.806,19.611,12.663,19.611,12.489z"/><path d="M24.089,12.503c0-0.175-0.143-0.317-0.316-0.317H21.66c-0.177,0-0.318,0.142-0.318,0.317c0,0.174,0.141,0.316,0.318,0.316  h2.113C23.947,12.821,24.089,12.678,24.089,12.503z"/><path d="M7.81,23.036H7.73c-0.146,0-0.265,0.117-0.265,0.263s0.118,0.263,0.265,0.263h3.106c0.146,0,0.264-0.118,0.264-0.263  s-0.119-0.263-0.264-0.263h-0.081v-0.483c0-0.083-0.068-0.151-0.151-0.151H7.96c-0.083,0-0.151,0.068-0.151,0.151V23.036z"/><path d="M12.288,23.036h-0.08c-0.146,0-0.265,0.117-0.265,0.263s0.119,0.263,0.265,0.263h3.107c0.146,0,0.265-0.118,0.265-0.263  s-0.12-0.263-0.265-0.263h-0.08v-0.483c0-0.083-0.067-0.151-0.15-0.151h-2.647c-0.083,0-0.15,0.068-0.15,0.151V23.036z"/><path d="M16.766,23.036h-0.081c-0.146,0-0.265,0.117-0.265,0.263s0.12,0.263,0.265,0.263h3.107c0.146,0,0.264-0.118,0.264-0.263  s-0.118-0.263-0.264-0.263h-0.08v-0.483c0-0.083-0.066-0.151-0.15-0.151h-2.646c-0.083,0-0.149,0.068-0.149,0.151V23.036z"/><path d="M21.243,23.05h-0.081c-0.145,0-0.264,0.117-0.264,0.264c0,0.145,0.119,0.262,0.264,0.262h3.107  c0.146,0,0.264-0.118,0.264-0.262c0-0.146-0.117-0.264-0.264-0.264h-0.08v-0.482c0-0.083-0.067-0.152-0.15-0.152h-2.646  c-0.084,0-0.152,0.069-0.152,0.152v0.482H21.243z"/><path d="M25.391,11.75H6.607c-0.273,0-0.494-0.224-0.494-0.5l0,0c0-0.276,0.221-0.5,0.494-0.5h18.783c0.273,0,0.494,0.224,0.494,0.5  l0,0C25.885,11.527,25.664,11.75,25.391,11.75z"/><path d="M27.21,9.387L16.449,4.091c-0.249-0.122-0.65-0.122-0.898,0L4.79,9.387C3.798,9.875,3.891,10.27,4.996,10.27H16h11.004  C28.109,10.27,28.202,9.875,27.21,9.387z M16,9.385c-1.104,0-2-0.896-2-2c0-1.104,0.896-2,2-2s2,0.896,2,2  C18,8.489,17.104,9.385,16,9.385z"/><path d="M16.216,8.528v0.261c0,0.066-0.054,0.121-0.12,0.121h-0.163c-0.066-0.001-0.12-0.055-0.12-0.121v-0.23  c-0.193-0.019-0.417-0.133-0.535-0.202c-0.027-0.016-0.047-0.042-0.055-0.073c-0.008-0.032-0.003-0.064,0.014-0.092l0.127-0.21  c0.032-0.055,0.109-0.071,0.164-0.039c0.117,0.074,0.246,0.145,0.411,0.145c0.183,0,0.291-0.077,0.291-0.205  c0-0.124-0.092-0.209-0.331-0.299c-0.281-0.106-0.604-0.281-0.604-0.695c0-0.34,0.199-0.591,0.534-0.672V5.981  c0-0.032,0.013-0.063,0.035-0.085c0.023-0.021,0.053-0.036,0.086-0.036h0.161c0.066,0,0.121,0.055,0.121,0.121v0.207  c0.208,0.025,0.373,0.149,0.453,0.222c0.047,0.043,0.051,0.124,0.007,0.176l-0.134,0.156c-0.041,0.047-0.112,0.051-0.166,0.009  c-0.061-0.049-0.161-0.109-0.293-0.109c-0.164,0-0.259,0.068-0.259,0.184c0,0.104,0.092,0.175,0.379,0.296  c0.392,0.156,0.56,0.368,0.56,0.709C16.78,8.187,16.564,8.454,16.216,8.528z"/></svg>