<svg xmlns="http://www.w3.org/2000/svg" version="1.1" x="0px" y="0px" viewBox="0 0 64 80"><path d="M57.5,10.12H44.75V6.48c0-2.47-1.857-4.48-4.14-4.48H23.39c-2.282,0-4.14,2.01-4.14,4.48v3.64H6.5    c-1.379,0-2.5,1.122-2.5,2.5v7c0,0.552,0.447,1,1,1h2.242L10,57.47c0,2.498,2.019,4.53,4.5,4.53h35c2.481,0,4.5-2.032,4.496-4.447    L57.09,20.62H59c0.553,0,1-0.448,1-1v-7C60,11.242,58.879,10.12,57.5,10.12z M52,57.47c0,1.396-1.121,2.53-2.5,2.53h-35    c-1.379,0-2.5-1.135-2.503-2.604L9.247,20.62h45.836L52,57.47z M58,18.62h-1.83h-48H6v-6c0-0.271,0.229-0.5,0.5-0.5h13.75    c0.553,0,1-0.448,1-1V6.48c0-1.368,0.96-2.48,2.14-2.48H40.61c1.18,0,2.14,1.112,2.14,2.48v4.64c0,0.552,0.447,1,1,1H57.5    c0.271,0,0.5,0.229,0.5,0.5V18.62z"/><path d="M38.75,6.04h-13.5C23.458,6.04,22,7.507,22,9.31v1.81c0,0.552,0.447,1,1,1h18c0.553,0,1-0.448,1-1V9.31    C42,7.507,40.542,6.04,38.75,6.04z M40,10.12H24V9.31c0-0.7,0.561-1.27,1.25-1.27h13.5c0.689,0,1.25,0.57,1.25,1.27V10.12z"/><path d="M32,23.625c-1.379,0-2.5,1.122-2.5,2.5v27.75c0,1.379,1.121,2.5,2.5,2.5s2.5-1.121,2.5-2.5v-27.75    C34.5,24.747,33.379,23.625,32,23.625z M32.5,53.875c0,0.275-0.225,0.5-0.5,0.5s-0.5-0.225-0.5-0.5v-27.75    c0-0.276,0.225-0.5,0.5-0.5s0.5,0.224,0.5,0.5V53.875z"/><path d="M22,23.625c-1.379,0-2.5,1.122-2.5,2.5v27.75c0,1.379,1.121,2.5,2.5,2.5s2.5-1.121,2.5-2.5v-27.75    C24.5,24.747,23.379,23.625,22,23.625z M22.5,53.875c0,0.275-0.225,0.5-0.5,0.5s-0.5-0.225-0.5-0.5v-27.75    c0-0.276,0.225-0.5,0.5-0.5s0.5,0.224,0.5,0.5V53.875z"/><path d="M42,23.625c-1.379,0-2.5,1.122-2.5,2.5v27.75c0,1.379,1.121,2.5,2.5,2.5s2.5-1.121,2.5-2.5v-27.75    C44.5,24.747,43.379,23.625,42,23.625z M42.5,53.875c0,0.275-0.225,0.5-0.5,0.5s-0.5-0.225-0.5-0.5v-27.75    c0-0.276,0.225-0.5,0.5-0.5s0.5,0.224,0.5,0.5V53.875z"/></svg>