<svg xmlns="http://www.w3.org/2000/svg" viewBox="0 0 8.4666667 10.583333625" version="1.1" x="0px" y="0px"><path d="m 3.1335469,-5.7666667e-4 c -0.8033676,0 -1.6066928,0.30547999667 -2.21795175,0.91673999667 -1.22252051,1.22251897 -1.22098857,3.21183497 0.00155,4.43435397 1.16652405,1.166523 3.02970395,1.218692 4.26020435,0.159164 l 0.3632861,0.364318 -0.39429,0.395325 0.1855179,0.187586 1.7792197,1.779219 c 0.3081523,0.308152 0.8168428,0.308152 1.1249951,0 0.3081523,-0.308153 0.3081549,-0.816843 0,-1.124996 L 6.2692748,5.1443283 5.9152914,5.4993453 5.5494203,5.1334763 C 6.5691271,3.9027533 6.5037194,2.0683823 5.3515014,0.91616333 4.7402398,0.30490333 3.9369145,-5.7666667e-4 3.1335469,-5.7666667e-4 Z m 0,0.52554899667 c 0.6667897,0 1.3336667,0.255178 1.8438151,0.76532797 1.0202995,1.020299 1.0202995,2.667332 0,3.68763 -1.0202968,1.020299 -2.6673307,1.020298 -3.6876301,0 -1.02029687,-1.020299 -1.02029687,-2.667331 0,-3.68763 0.510151,-0.51014897 1.177028,-0.76532797 1.843815,-0.76532797 z m 1.4086999,0.82733997 -0.3741367,0.374654 0.1865524,0.186035 c 0.4175548,0.417557 0.5930291,1.018763 0.4650872,1.595251 l -0.057878,0.256832 0.5167657,0.116272 0.057878,-0.259932 c 0.1669811,-0.752391 -0.062746,-1.537595 -0.6077162,-2.08256 z m 1.727028,4.541841 1.5916328,1.592151 c 0.1073308,0.107331 0.1073308,0.267322 0,0.374654 -0.1073309,0.107331 -0.2673218,0.107332 -0.3746527,0 L 5.8941036,6.2693243 Z"/></svg>