<!-- <svg xmlns="http://www.w3.org/2000/svg" data-name="Layer 1" viewBox="0 0 128 160" x="0px" y="0px"><path d="M55.54822.039l-49.942,10a1.99966,1.99966,0,1,0,.78326,3.92188l49.942-10A1.99967,1.99967,0,0,0,55.54822.039Z"/><path d="M73.80048,72.63373a3.9422,3.9422,0,0,0-3.21063-.06348,6.76721,6.76721,0,0,0-2.89752,2.40918L54.55426,65.996l-9.35339.05273L43.7403,59.95441,53.9422,48.26666V61.99994a5.962,5.962,0,0,1,3.37988,1.0459l.61548.42084V9.99994A1.99764,1.99764,0,0,0,55.54822,8.039l-49.942,10a1.99892,1.99892,0,0,0-1.606,1.96094v106a1.99817,1.99817,0,0,0,1.99768,2,1.96894,1.96894,0,0,0,.3916-.03906l49.942-10a1.99892,1.99892,0,0,0,1.606-1.96094V87.50348l-3.99536-2.521v29.37781l-45.94659,9.2002V21.63959l45.94659-9.2002v28.1864a4.68513,4.68513,0,0,0-2.87311-1.3573,4.1982,4.1982,0,0,0-3.276,1.16895c-.04535.04395-.08826.08887-.12921.13672L40.951,48.316,39.89648,43.916a12.341,12.341,0,0,0-2.92615-5.57471,11.94658,11.94658,0,0,1-3.01691,2.61389,8.56351,8.56351,0,0,1,2.05792,3.89441l.98907,4.12665L32.2077,43.99408a1.99893,1.99893,0,0,0-2.8775,2.77539l8.08484,8.4043a1.95957,1.95957,0,0,0,1.49042.61133,1.99481,1.99481,0,0,0,1.45685-.68848s10.21161-11.77716,10.23126-11.7998c.187-.2157.5993.19037.69745.31934a1.26606,1.26606,0,0,1,.08337,1.52637c-.04388.042-.08582.08594-.12537.13086L39.20691,59.06927,27.92944,50.37787a1.99938,1.99938,0,0,0-2.43756,3.16992l12.765,9.83789a1.96153,1.96153,0,0,0,2.22784.1283l1.57043,6.55237,11.275-.0625L69.37592,80.97552l1.13885-2.88086a3.83819,3.83819,0,0,1,1.467-1.80859,6.25775,6.25775,0,0,1-.576,2.24121l-2.53564,6.41895L51.50848,73.99115,26.88867,74.374l-7.11139-25.624a7.57816,7.57816,0,0,1,2.58264-7.4024c-.28418-.145-.57379-.27557-.84882-.44427a12.06474,12.06474,0,0,1-2.41718-1.96667,11.55213,11.55213,0,0,0-3.1842,10.81531l6.2771,22.62152L26.0415,88.457l-5.4848,22.11035-.03076.14844a3.2928,3.2928,0,0,0,.6272,2.57031,3.41249,3.41249,0,0,0,2.37128,1.31543l7.95612.81152c.55353.05566,1.06415.082,1.53528.082,3.89929,0,5.0791-1.80371,5.35321-3.417a4.02315,4.02315,0,0,0-.82672-3.168,6.96906,6.96906,0,0,0-3.25354-2.21582l4.44843-13.25879L41.35382,78.149l9.02905-.14032L67.59235,88.8681l.20923.11523a3.316,3.316,0,0,0,4.48407-1.80762L75.1217,79.997C76.97064,75.31146,75.4231,73.40619,73.80048,72.63373ZM34.90039,92.30951,28.97949,109.957l3.09991.31543a3.74128,3.74128,0,0,1,2.31665,1.07227,5.88741,5.88741,0,0,1-2.51172.08887l-7.24255-.73828L30.15393,88.4726,27.73059,78.36078l9.56519-.14868Z"/><path d="M66.51208,107.27338l-.08051.126a3.29505,3.29505,0,0,0-.319,2.627,3.42465,3.42465,0,0,0,1.75677,2.06934l7.15967,3.56445a9.72846,9.72846,0,0,0,4.22943,1.21094,3.69734,3.69734,0,0,0,3.39209-1.90137,4.02663,4.02663,0,0,0,.34039-3.25684,6.967,6.967,0,0,0-2.265-3.2207L89.5556,97.65228,93.107,91.58167l-4.54437,23.03156-.019.11133c-.13947.999.02832,2.74316,2.721,3.18652l8.63007,1.75391a11.72567,11.72567,0,0,0,1.9787.20117,4.48379,4.48379,0,0,0,2.71069-.77148,3.85255,3.85255,0,0,0,1.50995-2.69336c.32092-2.30762-1.69818-3.92578-3.31256-4.834L106.98261,90.498a4.6618,4.6618,0,0,0-.23016-2.46094l-2.93506-7.60254,2.45581-12.31628,14.52246-6.49329a5.21655,5.21655,0,0,0,3.07458-6.03809,4.8007,4.8007,0,0,0-2.283-3.17383,4.20727,4.20727,0,0,0-3.46326-.3125c-.059.02051-.117.04395-.17407.06934l-9.33655,4.21228.88489-4.43787a12.51578,12.51578,0,0,0-.31372-6.28589,11.94228,11.94228,0,0,1-3.8371,1.09644,8.48753,8.48753,0,0,1,.23254,4.40625l-.82971,4.16132L102.4859,48.789a1.998,1.998,0,1,0-3.7749,1.31055L102.53174,61.123a1.99688,1.99688,0,0,0,2.70831,1.168l14.23-6.41992a.21689.21689,0,0,1,.16241.03027.7964.7964,0,0,1,.337.55273,1.26423,1.26423,0,0,1-.56476,1.4209c-.05658.01953-.11267.042-.16779.06641L102.52734,65.412,95.9281,52.788a1.99833,1.99833,0,1,0-3.53986,1.85547l7.46985,14.28906a1.99818,1.99818,0,0,0,1.77087,1.07227c.06573,0,.13177-.014.19781-.02057L100.46912,76.793l-2.27167-.211a1.99973,1.99973,0,0,0-.36871,3.98242l1.85406.17224-.011.0553,3.35986,8.69824a1.50591,1.50591,0,0,1,.03314.22363L98.5603,112.30463l-.31995,1.627,1.53485.62012a7.9192,7.9192,0,0,1,2.17908,1.31836,7.76487,7.76487,0,0,1-1.31879-.13574L92.73163,114.124,97.0752,92.10931a4.08845,4.08845,0,0,0-.45892-2.70605L85.26764,69.87592a2.43046,2.43046,0,0,1-.20288-1.2041l4.1441-20.78223a7.56884,7.56884,0,0,1,5.42346-5.63293c-.1947-.24811-.38751-.49823-.56439-.76355A12.07646,12.07646,0,0,1,92.6947,38.688a11.48318,11.48318,0,0,0-7.40417,8.41833L81.14691,67.88763a6.24885,6.24885,0,0,0,.42676,3.4632L79.42676,88.51361ZM83.27,89.98041l1.60431-12.82788,6.00934,10.34-4.52252,7.75256L74.60962,109.67181l2.78925,1.38965a3.73846,3.73846,0,0,1,1.79132,1.82129H79.18a5.96251,5.96251,0,0,1-2.37177-.80469l-6.51782-3.24512Z"/><ellipse cx="104.03331" cy="34.83545" rx="7.99069" ry="8"/><ellipse cx="27.77301" cy="30.67609" rx="7.99072" ry="8"/></svg> -->

<svg xmlns="http://www.w3.org/2000/svg" data-name="Layer 1" viewBox="0 0 100 125" x="0px" y="0px"><path d="M50,2A47.76,47.76,0,0,0,18.81,13.53a2,2,0,0,0,.11,3.13l6.6,4.9a2,2,0,0,0,2.45,0,36,36,0,1,1,0,56.9,2,2,0,0,0-2.44,0l-6.64,4.93a2,2,0,0,0-.12,3.13A48,48,0,1,0,50,2Z"/><path d="M24.55,72.4,2.75,51.56a2,2,0,0,1,0-3.12L24.55,27.6a2,2,0,0,1,3.25,1.56V44H67.52a1,1,0,0,1,1,.89,46.77,46.77,0,0,1,0,10.22,1,1,0,0,1-1,.89H27.8V70.84A2,2,0,0,1,24.55,72.4Z"/></svg>