<svg xmlns="http://www.w3.org/2000/svg" xmlns:xlink="http://www.w3.org/1999/xlink" version="1.1" x="0px" y="0px" viewBox="0 0 512 640"><path d="M117.3,128v149.3H512V128H117.3z M244.9,214.7l-10.7,18.5l-20.9-12.1v24.2H192v-24.2l-20.9,12.1l-10.7-18.5l20.9-12.1   l-20.9-12.1l10.7-18.5l20.9,12.1V160h21.3v24.2l20.9-12.1l10.7,18.5L224,202.7L244.9,214.7z M351.6,214.7l-10.7,18.5L320,221.1   v24.2h-21.3v-24.2l-20.9,12.1l-10.7-18.5l20.9-12.1l-20.9-12.1l10.7-18.5l20.9,12.1V160H320v24.2l20.9-12.1l10.7,18.5l-20.9,12.1   L351.6,214.7z M458.3,214.7l-10.7,18.5l-20.9-12.1v24.2h-21.3v-24.2l-20.9,12.1l-10.7-18.5l20.9-12.1l-20.9-12.1l10.7-18.5   l20.9,12.1V160h21.3v24.2l20.9-12.1l10.7,18.5l-20.9,12.1L458.3,214.7z"/><path d="M96,234.7H74.7V128c0-58.8,47.8-106.7,106.7-106.7c51.5,0,94.6,36.7,104.5,85.4h21.6C297.2,46.2,244.6,0,181.3,0   c-70.6,0-128,57.4-128,128v106.7H0V512h362.6V298.7H96V234.7z M144.8,361.1c0-20.2,16.4-36.6,36.6-36.6c20.2,0,36.6,16.4,36.6,36.6   c0,10.6-4.6,20.1-11.8,26.8l11.8,60.1h-73.1l11.8-60.1C149.4,381.2,144.8,371.7,144.8,361.1z"/></svg>