<svg xmlns="http://www.w3.org/2000/svg" version="1.1" x="0px" y="0px" viewBox="0 0 100 125"><g transform="translate(0,-952.36218)"><path style="text-indent:0;text-transform:none;direction:ltr;block-progression:tb;baseline-shift:baseline;enable-background:accumulate;" d="m 32.51372,957.36292 c -0.464281,0.002 -0.941492,0.0245 -1.407585,0.0937 -1.242913,0.18463 -2.472515,0.58852 -3.62844,1.28169 l -5.004746,3.00102 c -4.736448,2.84026 -5.528722,8.89424 -3.065407,13.09819 l 31.091983,53.04915 a 3.0031477,3.0013174 0 0 0 0.688153,0.8128 l 21.958322,17.975 a 3.0031477,3.0013174 0 0 0 4.848347,-2.876 L 74.9915,1027.7931 a 3.0031477,3.0013174 0 1 0 -5.880576,1.094 l 1.251186,6.6586 -0.719432,0.4689 -14.263526,-11.629 -0.125118,-0.1876 c 0.570324,-1.4832 1.15925,-2.1862 1.407584,-2.3444 0.300535,-0.1916 0.651297,-0.3607 2.283416,0.2812 a 3.0031477,3.0013174 0 0 0 4.066356,-2.2819 c 0.317923,-1.818 0.769612,-2.2105 1.126067,-2.3758 0.322501,-0.1497 1.31752,-0.2642 3.159246,0.4063 l 0.813271,4.0327 a 3.0031477,3.0013174 0 1 0 5.880577,-1.1567 l -0.96967,-4.9704 a 3.0031477,3.0013174 0 0 0 -0.375356,-0.9691 L 40.583873,961.77067 c -1.715157,-2.83985 -4.820185,-4.4239 -8.070153,-4.40775 z m 0.218958,5.97078 c 1.164118,0.0451 2.176079,0.62898 2.72133,1.53177 l 1.626543,2.68841 -11.229399,6.37716 -1.251186,-2.12572 c -1.037875,-1.77126 -0.909083,-3.80006 0.93839,-4.90792 l 5.004745,-3.00101 c 0.735079,-0.4408 1.491105,-0.58974 2.189577,-0.56269 z m 7.444559,9.37818 23.397187,38.73182 c -0.677669,0.1133 -1.326204,0.2952 -1.970619,0.594 -1.673079,0.7763 -2.678972,2.2245 -3.440763,3.8763 -1.673454,-0.1806 -3.332489,-0.031 -4.754508,0.8753 -0.627945,0.4003 -1.15532,0.905 -1.626543,1.438 l -22.896712,-39.07574 11.291958,-6.43968 z m -15.264475,51.58002 a 3.0031477,3.0013174 0 0 0 -2.877728,3.3761 c 0.369738,3.3323 0.904632,5.9752 1.689101,8.0965 0.78447,2.1213 1.784716,3.8941 3.659721,4.9391 1.875005,1.045 4.317886,0.6643 5.943135,-0.3438 1.625249,-1.008 2.897958,-2.4712 4.160195,-4.3139 0.433016,-0.6322 0.660291,-0.7003 0.625593,-0.6878 -0.03469,0.013 -0.121447,-0.029 0.218958,0.094 0.68081,0.2456 2.407937,1.4962 4.379153,3.2199 3.94243,3.4473 9.489728,8.6904 17.328932,8.6904 l 4.003796,0 a 3.0031477,3.0013174 0 1 0 0,-6.002 l -4.003796,0 c -5.08037,0 -9.382975,-3.6881 -13.387695,-7.19 -2.00236,-1.7509 -3.763446,-3.477 -6.255932,-4.3765 -1.246243,-0.4497 -2.839964,-0.6241 -4.316594,-0.094 -1.476629,0.5305 -2.633499,1.6231 -3.534601,2.9385 -0.97532,1.4239 -1.887053,2.3024 -2.345975,2.5947 -0.03808,-0.058 -0.387977,-0.3284 -0.844551,-1.563 -0.521339,-1.4097 -1.009589,-3.6354 -1.345025,-6.6586 a 3.0031477,3.0013174 0 0 0 -3.096687,-2.7196 z" fill="#000000" fill-opacity="1" fill-rule="nonzero" stroke="none" marker="none" visibility="visible" display="inline" overflow="visible"/></g></svg>